<svg width="14" height="14" viewBox="0 0 14 14" fill="none" xmlns="http://www.w3.org/2000/svg">
<path id="Vector" d="M6.99998 0.333496C3.31331 0.333496 0.333313 3.3135 0.333313 7.00016C0.333313 10.6868 3.31331 13.6668 6.99998 13.6668C10.6866 13.6668 13.6666 10.6868 13.6666 7.00016C13.6666 3.3135 10.6866 0.333496 6.99998 0.333496ZM6.99998 12.3335C4.05998 12.3335 1.66665 9.94016 1.66665 7.00016C1.66665 4.06016 4.05998 1.66683 6.99998 1.66683C9.93998 1.66683 12.3333 4.06016 12.3333 7.00016C12.3333 9.94016 9.93998 12.3335 6.99998 12.3335ZM9.39331 3.66683L6.99998 6.06016L4.60665 3.66683L3.66665 4.60683L6.05998 7.00016L3.66665 9.3935L4.60665 10.3335L6.99998 7.94016L9.39331 10.3335L10.3333 9.3935L7.93998 7.00016L10.3333 4.60683L9.39331 3.66683Z" fill="#FF1A43"/>
</svg>
