<svg width="22" height="17" viewBox="0 0 22 17" fill="none" xmlns="http://www.w3.org/2000/svg">
<path d="M4.42341 13.4383L4.42253 13.4374C4.3986 13.4127 4.37098 13.3939 4.34167 13.3814L4.53822 12.9216L4.34167 13.3814C4.31239 13.3689 4.28155 13.3626 4.25078 13.3626C4.22001 13.3626 4.18917 13.3689 4.15989 13.3814L3.96334 12.9216L4.15989 13.3814C4.13057 13.3939 4.10296 13.4127 4.07902 13.4374L4.07874 13.4377L2.35982 15.2102L1.99981 15.5814L1.64091 15.2091L1.42311 14.9832C1.42297 14.9831 1.42283 14.9829 1.42269 14.9828C1.37446 14.9333 1.31239 14.9084 1.25091 14.9084C1.18926 14.9084 1.127 14.9335 1.07872 14.9832C1.02995 15.0335 1 15.1047 1 15.182C1 15.2593 1.02995 15.3306 1.07872 15.3808L1.82869 16.1535L1.82913 16.1539C1.85306 16.1786 1.88067 16.1974 1.90999 16.21C1.90999 16.21 1.90999 16.21 1.91 16.21L1.71344 16.6697C1.80456 16.7087 1.90223 16.7287 2.00088 16.7287C2.09953 16.7287 2.1972 16.7087 2.28832 16.6697L4.42341 13.4383ZM4.42341 13.4383C4.44742 13.463 4.46724 13.4931 4.48102 13.5273L4.94482 13.3405L4.42341 13.4383ZM4.42253 1.07479L4.42341 1.0757C4.44742 1.10037 4.46724 1.13049 4.48102 1.16471L4.48102 1.16471C4.49481 1.19894 4.50208 1.23614 4.50208 1.27405C4.50208 1.31195 4.49481 1.34915 4.48102 1.38338L4.48102 1.38338C4.46724 1.4176 4.44742 1.44772 4.42341 1.47239L4.42297 1.47285L2.17307 3.79084L2.17263 3.7913C2.1487 3.81601 2.12108 3.8348 2.09177 3.84733C2.06249 3.85985 2.03165 3.86608 2.00088 3.86608C1.97011 3.86608 1.93927 3.85985 1.90999 3.84733L1.71344 4.30708L1.90999 3.84733C1.88068 3.8348 1.85306 3.81601 1.82913 3.7913L1.82869 3.79084L1.07872 3.01818L0.732106 3.35461L1.07872 3.01818C1.05468 2.99341 1.03486 2.96321 1.02107 2.92892C1.00728 2.89461 1 2.85734 1 2.81937C1 2.7814 1.00728 2.74414 1.02107 2.70983C1.03486 2.67554 1.05468 2.64534 1.07872 2.62057L0.719938 2.27233L1.07872 2.62057C1.10273 2.59584 1.13042 2.57704 1.1598 2.5645C1.18915 2.55197 1.22007 2.54573 1.25091 2.54573C1.28176 2.54573 1.31267 2.55197 1.34202 2.5645C1.37123 2.57696 1.39876 2.59561 1.42266 2.62011C1.42281 2.62027 1.42296 2.62042 1.42311 2.62057L1.64091 2.84651L1.99981 3.2188L2.35982 2.84758L4.07874 1.07509L4.07903 1.07479C4.10296 1.05007 4.13057 1.03128 4.15989 1.01875C4.18917 1.00623 4.22001 1 4.25078 1C4.28155 1 4.31239 1.00623 4.34167 1.01875C4.37098 1.03128 4.3986 1.05007 4.42253 1.07479ZM4.42253 7.25611L4.42341 7.25701C4.44742 7.28169 4.46724 7.31181 4.48102 7.34602L4.94482 7.15922L4.48102 7.34603C4.49481 7.38026 4.50208 7.41746 4.50208 7.45536C4.50208 7.49327 4.49481 7.53047 4.48102 7.5647L4.94482 7.7515L4.48102 7.5647C4.46724 7.59891 4.44742 7.62903 4.42341 7.65371L4.42297 7.65416L2.17307 9.97216L2.17263 9.97261C2.1487 9.99733 2.12108 10.0161 2.09177 10.0287C2.06249 10.0412 2.03165 10.0474 2.00088 10.0474C1.97011 10.0474 1.93927 10.0412 1.90999 10.0286C1.88067 10.0161 1.85306 9.99733 1.82913 9.97261L1.82869 9.97216L1.07872 9.19949C1.02995 9.14924 1 9.07799 1 9.00069C1 8.92339 1.02995 8.85214 1.07872 8.80189L0.719938 8.45364L1.07872 8.80189C1.127 8.75214 1.18926 8.72705 1.25091 8.72705C1.31237 8.72705 1.37442 8.75198 1.42264 8.80141C1.4228 8.80157 1.42295 8.80173 1.42311 8.80189L1.64091 9.02783L1.99981 9.40012L2.35982 9.02889L4.07874 7.2564L4.07903 7.2561C4.10296 7.23139 4.13057 7.2126 4.15989 7.20007L3.96334 6.74032L4.15989 7.20007C4.18917 7.18755 4.22001 7.18132 4.25078 7.18132C4.28155 7.18132 4.31239 7.18755 4.34167 7.20007L4.53822 6.74032L4.34167 7.20007C4.37098 7.2126 4.3986 7.23139 4.42253 7.25611ZM7.00068 15.182C7.00068 15.105 7.03052 15.034 7.07912 14.9839C7.12723 14.9343 7.18924 14.9093 7.25064 14.9093H20.75C20.8114 14.9093 20.8735 14.9343 20.9216 14.9839C20.9702 15.034 21 15.105 21 15.182C21 15.2591 20.9702 15.3301 20.9216 15.3801C20.8735 15.4297 20.8114 15.4547 20.75 15.4547H7.25064C7.18924 15.4547 7.12723 15.4297 7.07912 15.3801C7.03052 15.3301 7.00068 15.2591 7.00068 15.182ZM7.00068 9.00069C7.00068 8.92365 7.03052 8.85265 7.07912 8.80258C7.12723 8.75302 7.18924 8.72803 7.25064 8.72803H20.75C20.8114 8.72803 20.8735 8.75302 20.9216 8.80258C20.9702 8.85264 21 8.92364 21 9.00069C21 9.07774 20.9702 9.14874 20.9216 9.1988C20.8735 9.24836 20.8114 9.27335 20.75 9.27335H7.25064C7.18924 9.27335 7.12722 9.24836 7.07912 9.1988C7.03052 9.14874 7.00068 9.07774 7.00068 9.00069ZM7.00068 2.81937C7.00068 2.74233 7.03052 2.67133 7.07912 2.62126C7.12723 2.5717 7.18924 2.54671 7.25064 2.54671H20.75C20.8114 2.54671 20.8735 2.5717 20.9216 2.62126C20.9702 2.67133 21 2.74233 21 2.81937C21 2.89642 20.9702 2.96742 20.9216 3.01749C20.8735 3.06705 20.8114 3.09204 20.75 3.09204H7.25064C7.18924 3.09204 7.12723 3.06705 7.07912 3.01749C7.03052 2.96742 7.00068 2.89642 7.00068 2.81937Z" fill="#252B42" stroke="#252B42"/>
</svg>
