<svg width="13" height="14" viewBox="0 0 16 14" fill="none" xmlns="http://www.w3.org/2000/svg">
<path id="Vector" d="M12.1049 0.916718L8.95193 5.16507C8.90729 5.22625 8.88851 5.30001 8.89904 5.37276C8.90957 5.44552 8.9487 5.51236 9.00923 5.56099C9.06976 5.60962 9.1476 5.63675 9.22842 5.63738C9.30924 5.63801 9.38758 5.6121 9.44903 5.56443L12.5531 3.12267C12.5713 3.10871 12.5936 3.09976 12.6172 3.09685C12.6408 3.09394 12.6649 3.09719 12.6865 3.10623C12.7082 3.11527 12.7266 3.12972 12.7396 3.1479C12.7525 3.16608 12.7595 3.18722 12.7597 3.20888V10.86C12.7595 10.8833 12.7514 10.906 12.7365 10.9251C12.7216 10.9441 12.7007 10.9585 12.6765 10.9664C12.6523 10.9743 12.626 10.9752 12.6012 10.9691C12.5764 10.963 12.5542 10.9501 12.5377 10.9322L3.16131 0.736692C3.01019 0.575001 2.82214 0.445097 2.6102 0.355996C2.39825 0.266895 2.16749 0.220729 1.93393 0.220703H1.60719C1.18093 0.220703 0.77214 0.374442 0.470734 0.6481C0.169328 0.921757 0 1.29292 0 1.67993V12.4561C0.000739824 12.8427 0.170395 13.2132 0.47172 13.4863C0.773046 13.7594 1.18142 13.9128 1.60719 13.9128C1.88182 13.9128 2.15186 13.8488 2.39146 13.727C2.63106 13.6051 2.83219 13.4294 2.9756 13.2168L6.12853 8.96843C6.17317 8.90726 6.19195 8.8335 6.18142 8.76075C6.17089 8.68799 6.13176 8.62114 6.07123 8.57252C6.0107 8.52389 5.93286 8.49676 5.85204 8.49613C5.77122 8.4955 5.69288 8.52141 5.63144 8.56908L2.52737 11.0108C2.50914 11.0248 2.48691 11.0337 2.46327 11.0367C2.43964 11.0396 2.41558 11.0363 2.39391 11.0273C2.37224 11.0182 2.35385 11.0038 2.34089 10.9856C2.32793 10.9674 2.32093 10.9463 2.32072 10.9246V3.27353C2.32094 3.25019 2.32904 3.22748 2.34393 3.20845C2.35881 3.18942 2.37977 3.17499 2.40397 3.16712C2.42817 3.15924 2.45445 3.15829 2.47926 3.1644C2.50408 3.17051 2.52623 3.18337 2.54273 3.20127L11.9191 13.3968C12.0703 13.5585 12.2583 13.6884 12.4703 13.7775C12.6822 13.8666 12.913 13.9128 13.1465 13.9128H13.4733C13.8995 13.9128 14.3083 13.7591 14.6097 13.4854C14.9111 13.2118 15.0805 12.8406 15.0805 12.4536V1.67739C15.0797 1.29082 14.9101 0.920312 14.6087 0.647203C14.3074 0.374094 13.899 0.220703 13.4733 0.220703C13.1986 0.220681 12.9286 0.284666 12.689 0.406533C12.4494 0.528399 12.2483 0.704067 12.1049 0.916718Z" fill="white"/>
</svg>
