<svg width="43" height="43" viewBox="0 0 43 43" fill="none" xmlns="http://www.w3.org/2000/svg">
<g id="Group 64">
<g id="ShareNetwork">
<path id="Vector" d="M14.25 24.125C16.252 24.125 17.875 22.502 17.875 20.5C17.875 18.498 16.252 16.875 14.25 16.875C12.248 16.875 10.625 18.498 10.625 20.5C10.625 22.502 12.248 24.125 14.25 24.125Z" stroke="#AA5F2A" stroke-width="1.5" stroke-linecap="round" stroke-linejoin="round"/>
<path id="Vector_2" d="M26.9375 32.2812C28.9395 32.2812 30.5625 30.6583 30.5625 28.6562C30.5625 26.6542 28.9395 25.0312 26.9375 25.0312C24.9355 25.0312 23.3125 26.6542 23.3125 28.6562C23.3125 30.6583 24.9355 32.2812 26.9375 32.2812Z" stroke="#AA5F2A" stroke-width="1.5" stroke-linecap="round" stroke-linejoin="round"/>
<path id="Vector_3" d="M26.9375 15.9688C28.9395 15.9688 30.5625 14.3458 30.5625 12.3438C30.5625 10.3417 28.9395 8.71875 26.9375 8.71875C24.9355 8.71875 23.3125 10.3417 23.3125 12.3438C23.3125 14.3458 24.9355 15.9688 26.9375 15.9688Z" stroke="#AA5F2A" stroke-width="1.5" stroke-linecap="round" stroke-linejoin="round"/>
<path id="Vector_4" d="M23.8885 14.3037L17.2988 18.5399" stroke="#AA5F2A" stroke-width="1.5" stroke-linecap="round" stroke-linejoin="round"/>
<path id="Vector_5" d="M17.2988 22.46L23.8885 26.6962" stroke="#AA5F2A" stroke-width="1.5" stroke-linecap="round" stroke-linejoin="round"/>
</g>
<ellipse id="Ellipse 3" cx="21.5" cy="21.4078" rx="20.5" ry="20.4078" stroke="#BF9861" stroke-width="2"/>
</g>
</svg>
