<svg width="40" height="40" viewBox="0 0 40 40" fill="none" xmlns="http://www.w3.org/2000/svg">
<g id="Users">
<path id="Vector" d="M13.75 25C18.2373 25 21.875 21.3623 21.875 16.875C21.875 12.3877 18.2373 8.75 13.75 8.75C9.26269 8.75 5.625 12.3877 5.625 16.875C5.625 21.3623 9.26269 25 13.75 25Z" stroke="black" stroke-width="3" stroke-linecap="round" stroke-linejoin="round"/>
<path id="Vector_2" d="M24.2909 9.05354C25.4084 8.73868 26.5804 8.66695 27.728 8.84319C28.8756 9.01942 29.9721 9.43954 30.9436 10.0752C31.9152 10.7109 32.7392 11.5474 33.3603 12.5284C33.9813 13.5094 34.3849 14.6121 34.5439 15.7622C34.7029 16.9123 34.6136 18.0831 34.282 19.1958C33.9504 20.3085 33.3842 21.3372 32.6216 22.2126C31.8589 23.088 30.9175 23.7899 29.8608 24.2708C28.8041 24.7518 27.6565 25.0008 26.4955 25.0009" stroke="black" stroke-width="3" stroke-linecap="round" stroke-linejoin="round"/>
<path id="Vector_3" d="M2.5 30.8432C3.76888 29.0382 5.45344 27.5651 7.41144 26.548C9.36945 25.531 11.5434 25.0001 13.7498 25C15.9561 24.9999 18.1301 25.5307 20.0882 26.5476C22.0463 27.5644 23.731 29.0375 25 30.8424" stroke="black" stroke-width="3" stroke-linecap="round" stroke-linejoin="round"/>
<path id="Vector_4" d="M26.4864 25C28.693 24.9984 30.8675 25.5285 32.8258 26.5455C34.7841 27.5625 36.4685 29.0364 37.7364 30.8424" stroke="black" stroke-width="3" stroke-linecap="round" stroke-linejoin="round"/>
</g>
</svg>
