<svg width="21" height="21" viewBox="0 0 21 21" fill="none" xmlns="http://www.w3.org/2000/svg">
<path id="Vector 2" d="M1.37248 11.0165C1.14606 11.0763 0.99142 11.2851 1.00036 11.5191C1.00931 11.7531 1.17945 11.9495 1.40976 11.9918L2.62946 12.2156C6.00704 12.8354 8.78725 15.2296 9.90119 18.4779L10.3073 19.6622C10.3779 19.8679 10.5733 20.0045 10.7908 19.9999C11.0082 19.9953 11.1978 19.8507 11.2596 19.6422L11.5202 18.7635C12.5311 15.3554 15.36 12.7968 18.8522 12.1322L19.5935 11.9912C19.8221 11.9477 19.9904 11.7522 19.9996 11.5197C20.0088 11.2872 19.8564 11.0791 19.6319 11.0177L18.5843 10.7311C15.2547 9.82037 12.6811 7.17521 11.8621 3.82189L11.266 1.38136C11.2121 1.16073 11.0163 1.00413 10.7892 1.00008C10.5621 0.996027 10.3608 1.14554 10.2991 1.36411L9.5465 4.02899C8.63286 7.26411 6.07752 9.77549 2.82704 10.6329L1.37248 11.0165Z" fill="#FF912B" stroke="#FFD12F" stroke-linejoin="round"/>
</svg>
