<svg width="16" height="16" viewBox="0 0 16 16" fill="none" xmlns="http://www.w3.org/2000/svg">
<g filter="url(#filter0_d_807_5480)">
<path d="M11.3337 0.825534C11.3337 0.738336 11.2645 0.666992 11.1799 0.666992L9.91113 0.672938L8.00032 3.02133L6.09144 0.67492L4.82078 0.668974C4.7362 0.668974 4.66699 0.738336 4.66699 0.827515C4.66699 0.865169 4.68045 0.900841 4.70352 0.930568L7.20448 4.00231L4.70352 7.07206C4.68029 7.10111 4.6674 7.13748 4.66699 7.17512C4.66699 7.26231 4.7362 7.33366 4.82078 7.33366L6.09144 7.32771L8.00032 4.97932L9.90921 7.32573L11.1779 7.33168C11.2625 7.33168 11.3317 7.26231 11.3317 7.17313C11.3317 7.13548 11.3183 7.09981 11.2952 7.07008L8.7981 4.00033L11.2991 0.928586C11.3221 0.900841 11.3337 0.863187 11.3337 0.825534Z" fill="url(#paint0_linear_807_5480)"/>
<path d="M11.3337 0.825534C11.3337 0.738336 11.2645 0.666992 11.1799 0.666992L9.91113 0.672938L8.00032 3.02133L6.09144 0.67492L4.82078 0.668974C4.7362 0.668974 4.66699 0.738336 4.66699 0.827515C4.66699 0.865169 4.68045 0.900841 4.70352 0.930568L7.20448 4.00231L4.70352 7.07206C4.68029 7.10111 4.6674 7.13748 4.66699 7.17512C4.66699 7.26231 4.7362 7.33366 4.82078 7.33366L6.09144 7.32771L8.00032 4.97932L9.90921 7.32573L11.1779 7.33168C11.2625 7.33168 11.3317 7.26231 11.3317 7.17313C11.3317 7.13548 11.3183 7.09981 11.2952 7.07008L8.7981 4.00033L11.2991 0.928586C11.3221 0.900841 11.3337 0.863187 11.3337 0.825534Z" fill="url(#paint1_radial_807_5480)"/>
</g>
<defs>
<filter id="filter0_d_807_5480" x="0.666992" y="0.666992" width="14.667" height="14.6666" filterUnits="userSpaceOnUse" color-interpolation-filters="sRGB">
<feFlood flood-opacity="0" result="BackgroundImageFix"/>
<feColorMatrix in="SourceAlpha" type="matrix" values="0 0 0 0 0 0 0 0 0 0 0 0 0 0 0 0 0 0 127 0" result="hardAlpha"/>
<feOffset dy="4"/>
<feGaussianBlur stdDeviation="2"/>
<feComposite in2="hardAlpha" operator="out"/>
<feColorMatrix type="matrix" values="0 0 0 0 0 0 0 0 0 0 0 0 0 0 0 0 0 0 0.25 0"/>
<feBlend mode="normal" in2="BackgroundImageFix" result="effect1_dropShadow_807_5480"/>
<feBlend mode="normal" in="SourceGraphic" in2="effect1_dropShadow_807_5480" result="shape"/>
</filter>
<linearGradient id="paint0_linear_807_5480" x1="4.66699" y1="7.33366" x2="11.9156" y2="6.62579" gradientUnits="userSpaceOnUse">
<stop stop-color="#FFD43C"/>
<stop offset="1" stop-color="#FFBD59"/>
</linearGradient>
<radialGradient id="paint1_radial_807_5480" cx="0" cy="0" r="1" gradientUnits="userSpaceOnUse" gradientTransform="translate(7.50037 3.50049) rotate(63.4349) scale(3.3541 3.30363)">
<stop stop-color="white" stop-opacity="0.4"/>
<stop offset="0.697917" stop-color="white" stop-opacity="0"/>
<stop offset="1" stop-color="white" stop-opacity="0"/>
</radialGradient>
</defs>
</svg>
